<?xml version="1.0" encoding="UTF-8"?>
<svg xmlns="http://www.w3.org/2000/svg" xmlns:xlink="http://www.w3.org/1999/xlink" width="100px" height="100px" viewBox="0 0 100 100" version="1.1">
<g id="surface1">
<path style=" stroke:none;fill-rule:nonzero;fill:rgb(0%,0%,0%);fill-opacity:1;" d="M 42.882812 30.164062 C 42.773438 30.273438 42.675781 30.488281 42.675781 30.632812 C 42.675781 31.035156 42.5 31.601562 42.167969 32.351562 C 41.90625 32.917969 41.835938 32.996094 41.671875 32.949219 C 41.554688 32.910156 41.203125 32.878906 40.871094 32.878906 C 39.785156 32.871094 38.964844 33.503906 38.359375 34.84375 C 37.929688 35.78125 35.753906 41.0625 35.539062 41.6875 C 35.332031 42.265625 35.292969 42.675781 35.441406 42.675781 C 35.734375 42.675781 36.660156 40.839844 38.332031 36.914062 C 39.316406 34.597656 39.5625 34.167969 40.050781 33.894531 C 40.5 33.640625 40.820312 33.621094 40.761719 33.855469 C 40.703125 34.109375 41.046875 34.617188 41.503906 34.949219 C 42.375 35.574219 43.496094 35.710938 43.867188 35.234375 C 44.082031 34.949219 44.09375 34.492188 43.886719 34.199219 C 43.742188 33.984375 43.761719 33.933594 44.316406 33.027344 C 44.640625 32.507812 45.019531 31.972656 45.15625 31.835938 C 45.292969 31.699219 45.410156 31.492188 45.410156 31.375 C 45.410156 30.878906 44.375 30.136719 43.527344 30.019531 C 43.164062 29.96875 43.058594 29.988281 42.882812 30.164062 Z M 42.882812 30.164062 "/>
<path style=" stroke:none;fill-rule:nonzero;fill:rgb(0%,0%,0%);fill-opacity:1;" d="M 40.195312 35.046875 C 40.050781 35.320312 39.570312 36.386719 39.121094 37.421875 C 38.664062 38.457031 37.785156 40.417969 37.167969 41.785156 C 36.542969 43.152344 36.035156 44.363281 36.035156 44.480469 C 36.035156 44.8125 36.535156 45.28125 37.226562 45.605469 C 37.988281 45.957031 38.585938 46.0625 38.742188 45.878906 C 39.035156 45.527344 43.359375 36.367188 43.359375 36.101562 C 43.359375 36.082031 43.15625 36.035156 42.910156 35.996094 C 42.277344 35.90625 41.320312 35.429688 40.851562 34.949219 L 40.449219 34.550781 Z M 40.195312 35.046875 "/>
<path style=" stroke:none;fill-rule:nonzero;fill:rgb(0%,0%,0%);fill-opacity:1;" d="M 17.265625 36.101562 C 16.992188 36.140625 16.992188 36.140625 16.992188 36.960938 C 16.992188 37.742188 16.984375 37.792969 16.777344 37.839844 C 16.652344 37.859375 16.152344 37.957031 15.65625 38.046875 L 14.757812 38.203125 L 14.726562 39.089844 L 14.699219 39.96875 L 13.625 40.332031 L 12.550781 40.691406 L 12.519531 52.324219 L 12.5 63.964844 L 29.015625 63.964844 L 29.5625 64.550781 C 29.921875 64.949219 30.3125 65.234375 30.753906 65.457031 C 31.359375 65.75 31.457031 65.769531 32.472656 65.769531 C 33.496094 65.769531 33.574219 65.761719 34.179688 65.4375 C 34.550781 65.242188 35.03125 64.871094 35.351562 64.539062 L 35.898438 63.964844 L 52.34375 63.964844 L 52.324219 52.3125 L 52.296875 40.671875 L 51.25 40.332031 L 50.195312 39.988281 L 50.195312 39.128906 C 50.195312 38.132812 50.285156 38.210938 48.859375 37.9375 L 47.949219 37.773438 L 47.941406 37.265625 C 47.921875 36.484375 47.871094 36.199219 47.734375 36.121094 C 47.667969 36.074219 46.894531 36.035156 46.027344 36.035156 L 44.453125 36.035156 L 44.199219 36.464844 C 44.0625 36.707031 43.945312 36.933594 43.945312 36.980469 C 43.945312 37.019531 44.570312 37.058594 45.332031 37.058594 L 46.730469 37.058594 L 46.757812 47.351562 L 46.777344 57.636719 L 46.027344 57.597656 C 44.972656 57.539062 42.421875 57.683594 41.308594 57.871094 C 38.507812 58.328125 35.421875 59.453125 33.390625 60.730469 L 32.765625 61.132812 L 32.734375 51.484375 L 32.707031 41.84375 L 33.175781 41.425781 C 33.429688 41.191406 34.003906 40.761719 34.433594 40.457031 C 35.214844 39.929688 35.246094 39.902344 35.488281 39.226562 C 35.625 38.847656 35.722656 38.523438 35.703125 38.503906 C 35.625 38.425781 34.230469 39.277344 33.515625 39.824219 C 32.335938 40.75 32.511719 40.710938 31.816406 40.15625 C 29.132812 38.027344 25.390625 36.550781 21.660156 36.140625 C 20.761719 36.042969 17.84375 36.015625 17.265625 36.101562 Z M 22.460938 37.351562 C 25.988281 37.957031 28.546875 39.011719 31.113281 40.925781 C 31.601562 41.289062 32.0625 41.667969 32.140625 41.757812 C 32.257812 41.894531 32.285156 43.417969 32.316406 51.582031 C 32.335938 56.921875 32.304688 61.230469 32.265625 61.230469 C 32.21875 61.230469 31.875 61.023438 31.496094 60.78125 C 30.558594 60.164062 28.671875 59.265625 27.441406 58.835938 C 24.902344 57.957031 22.746094 57.597656 19.953125 57.578125 L 18.066406 57.566406 L 18.066406 37.078125 L 19.804688 37.136719 C 20.753906 37.167969 21.953125 37.265625 22.460938 37.351562 Z M 48.808594 39.167969 L 49.023438 39.257812 L 49.023438 59.792969 L 48.566406 59.726562 C 48.320312 59.695312 48.039062 59.667969 47.929688 59.667969 C 47.824219 59.667969 47.765625 59.636719 47.785156 59.589844 C 47.902344 59.402344 42.84375 59.382812 41.300781 59.558594 C 40.792969 59.628906 40.292969 59.695312 40.1875 59.714844 C 40.078125 59.746094 40.050781 59.734375 40.109375 59.707031 C 40.195312 59.667969 40.207031 59.597656 40.136719 59.472656 C 40.058594 59.324219 40.097656 59.285156 40.390625 59.238281 C 40.578125 59.199219 40.832031 59.199219 40.949219 59.226562 C 41.125 59.277344 41.132812 59.265625 41.015625 59.179688 C 40.898438 59.089844 40.929688 59.070312 41.183594 59.101562 C 41.359375 59.128906 41.476562 59.109375 41.457031 59.082031 C 41.320312 58.855469 45.195312 58.691406 47.589844 58.816406 L 47.949219 58.835938 L 47.949219 38.964844 L 48.261719 39.03125 C 48.4375 39.0625 48.683594 39.128906 48.808594 39.167969 Z M 16.914062 48.945312 L 16.945312 58.835938 L 17.726562 58.789062 C 20.304688 58.632812 22.902344 58.828125 25.078125 59.34375 C 26.074219 59.589844 26.152344 59.617188 25.957031 59.734375 C 25.761719 59.84375 25.800781 59.851562 26.347656 59.863281 C 26.808594 59.863281 27.1875 59.949219 27.910156 60.222656 C 28.429688 60.417969 28.945312 60.644531 29.054688 60.722656 C 29.210938 60.839844 29.21875 60.847656 29.074219 60.800781 C 28.976562 60.769531 28.664062 60.671875 28.371094 60.59375 C 28.078125 60.507812 27.8125 60.398438 27.785156 60.351562 C 27.753906 60.300781 27.667969 60.28125 27.589844 60.320312 C 27.511719 60.351562 27.441406 60.320312 27.441406 60.253906 C 27.441406 60.195312 27.402344 60.164062 27.355469 60.195312 C 27.304688 60.222656 27.121094 60.222656 26.945312 60.183594 C 26.660156 60.136719 26.652344 60.117188 26.808594 60.039062 C 26.953125 59.980469 26.933594 59.96875 26.710938 60 C 26.554688 60.019531 26.113281 59.980469 25.734375 59.910156 C 22.714844 59.34375 20.460938 59.265625 17.414062 59.628906 C 16.757812 59.707031 16.164062 59.765625 16.074219 59.765625 C 15.929688 59.765625 15.917969 58.808594 15.917969 49.472656 C 15.917969 39.746094 15.929688 39.167969 16.09375 39.128906 C 16.183594 39.101562 16.40625 39.082031 16.574219 39.070312 L 16.894531 39.0625 Z M 16.914062 48.945312 "/>
<path style=" stroke:none;fill-rule:nonzero;fill:rgb(0%,0%,0%);fill-opacity:1;" d="M 48.632812 39.355469 C 48.632812 39.402344 48.683594 39.453125 48.742188 39.453125 C 48.789062 39.453125 48.808594 39.402344 48.78125 39.355469 C 48.75 39.296875 48.703125 39.257812 48.671875 39.257812 C 48.652344 39.257812 48.632812 39.296875 48.632812 39.355469 Z M 48.632812 39.355469 "/>
<path style=" stroke:none;fill-rule:nonzero;fill:rgb(0%,0%,0%);fill-opacity:1;" d="M 48.664062 45.359375 L 48.664062 47.019531 L 48.742188 45.898438 C 48.78125 45.28125 48.78125 44.53125 48.730469 44.238281 C 48.683594 43.847656 48.664062 44.148438 48.664062 45.359375 Z M 48.664062 45.359375 "/>
<path style=" stroke:none;fill-rule:nonzero;fill:rgb(0%,0%,0%);fill-opacity:1;" d="M 48.175781 45.117188 C 48.175781 45.46875 48.195312 45.605469 48.214844 45.429688 C 48.234375 45.261719 48.234375 44.96875 48.214844 44.792969 C 48.195312 44.628906 48.175781 44.765625 48.175781 45.117188 Z M 48.175781 45.117188 "/>
<path style=" stroke:none;fill-rule:nonzero;fill:rgb(0%,0%,0%);fill-opacity:1;" d="M 48.652344 50.488281 C 48.652344 50.671875 48.671875 50.75 48.703125 50.652344 C 48.722656 50.566406 48.722656 50.410156 48.703125 50.3125 C 48.671875 50.222656 48.652344 50.300781 48.652344 50.488281 Z M 48.652344 50.488281 "/>
<path style=" stroke:none;fill-rule:nonzero;fill:rgb(0%,0%,0%);fill-opacity:1;" d="M 48.214844 51.453125 C 48.175781 51.621094 48.183594 51.660156 48.261719 51.582031 C 48.3125 51.53125 48.339844 51.425781 48.320312 51.355469 C 48.292969 51.277344 48.253906 51.328125 48.214844 51.453125 Z M 48.214844 51.453125 "/>
<path style=" stroke:none;fill-rule:nonzero;fill:rgb(0%,0%,0%);fill-opacity:1;" d="M 48.261719 54.160156 C 48.253906 54.324219 48.222656 54.617188 48.195312 54.792969 L 48.144531 55.125 L 48.253906 54.792969 C 48.300781 54.617188 48.332031 54.335938 48.3125 54.160156 L 48.273438 53.855469 Z M 48.261719 54.160156 "/>
<path style=" stroke:none;fill-rule:nonzero;fill:rgb(0%,0%,0%);fill-opacity:1;" d="M 48.46875 55.859375 C 48.46875 56.101562 48.488281 56.199219 48.507812 56.074219 C 48.527344 55.957031 48.527344 55.761719 48.507812 55.632812 C 48.488281 55.515625 48.46875 55.613281 48.46875 55.859375 Z M 48.46875 55.859375 "/>
<path style=" stroke:none;fill-rule:nonzero;fill:rgb(0%,0%,0%);fill-opacity:1;" d="M 48.710938 56.210938 C 48.664062 56.25 48.644531 56.660156 48.644531 57.117188 L 48.664062 57.957031 L 48.75 57.273438 C 48.839844 56.542969 48.828125 56.082031 48.710938 56.210938 Z M 48.710938 56.210938 "/>
<path style=" stroke:none;fill-rule:nonzero;fill:rgb(0%,0%,0%);fill-opacity:1;" d="M 48.085938 57.097656 C 48.097656 57.910156 48.117188 57.996094 48.273438 57.949219 C 48.410156 57.910156 48.4375 57.957031 48.4375 58.222656 C 48.4375 58.398438 48.390625 58.613281 48.339844 58.691406 C 48.261719 58.816406 48.242188 58.808594 48.242188 58.660156 C 48.242188 58.574219 48.195312 58.496094 48.136719 58.496094 C 48.078125 58.496094 48.058594 58.5625 48.085938 58.652344 C 48.117188 58.738281 48.144531 58.847656 48.144531 58.90625 C 48.144531 58.964844 48.214844 58.984375 48.292969 58.945312 C 48.371094 58.914062 48.4375 58.933594 48.4375 58.972656 C 48.4375 59.023438 48.371094 59.089844 48.28125 59.121094 C 48.046875 59.207031 47.753906 59.1875 47.753906 59.082031 C 47.753906 59.023438 47.636719 58.984375 47.492188 58.992188 L 47.21875 59.003906 L 47.460938 59.070312 C 47.6875 59.140625 47.675781 59.148438 47.316406 59.226562 L 46.925781 59.304688 L 47.265625 59.382812 C 47.453125 59.421875 47.675781 59.414062 47.773438 59.363281 C 47.988281 59.246094 48.078125 59.257812 48 59.375 C 47.96875 59.421875 47.96875 59.472656 48.019531 59.472656 C 48.058594 59.472656 48.195312 59.5 48.320312 59.53125 C 48.527344 59.589844 48.535156 59.558594 48.554688 59.070312 C 48.566406 58.582031 48.574219 58.574219 48.605469 58.953125 C 48.664062 59.53125 48.789062 59.480469 48.847656 58.867188 C 48.886719 58.457031 48.867188 58.320312 48.710938 58.164062 C 48.527344 57.957031 48.476562 57.800781 48.410156 57.273438 C 48.378906 57.050781 48.359375 57.089844 48.339844 57.421875 C 48.320312 57.800781 48.300781 57.753906 48.195312 57.03125 L 48.078125 56.199219 Z M 48.390625 59.453125 C 48.3125 59.53125 48.144531 59.355469 48.203125 59.257812 C 48.242188 59.199219 48.292969 59.207031 48.351562 59.285156 C 48.390625 59.355469 48.410156 59.433594 48.390625 59.453125 Z M 48.390625 59.453125 "/>
<path style=" stroke:none;fill-rule:nonzero;fill:rgb(0%,0%,0%);fill-opacity:1;" d="M 47.902344 58.984375 C 47.871094 59.03125 47.890625 59.082031 47.941406 59.082031 C 48 59.082031 48.046875 59.03125 48.046875 58.984375 C 48.046875 58.925781 48.027344 58.886719 48.007812 58.886719 C 47.980469 58.886719 47.929688 58.925781 47.902344 58.984375 Z M 47.902344 58.984375 "/>
<path style=" stroke:none;fill-rule:nonzero;fill:rgb(0%,0%,0%);fill-opacity:1;" d="M 45.585938 59.246094 C 45.644531 59.265625 45.761719 59.265625 45.832031 59.246094 C 45.890625 59.21875 45.839844 59.199219 45.703125 59.199219 C 45.566406 59.199219 45.519531 59.21875 45.585938 59.246094 Z M 45.585938 59.246094 "/>
<path style=" stroke:none;fill-rule:nonzero;fill:rgb(0%,0%,0%);fill-opacity:1;" d="M 16.046875 53.515625 C 16.046875 53.757812 16.066406 53.855469 16.085938 53.730469 C 16.105469 53.613281 16.105469 53.417969 16.085938 53.289062 C 16.066406 53.171875 16.046875 53.269531 16.046875 53.515625 Z M 16.046875 53.515625 "/>
<path style=" stroke:none;fill-rule:nonzero;fill:rgb(0%,0%,0%);fill-opacity:1;" d="M 16.222656 55.625 C 16.222656 55.730469 16.25 55.761719 16.28125 55.683594 C 16.308594 55.613281 16.300781 55.527344 16.269531 55.496094 C 16.242188 55.457031 16.210938 55.515625 16.222656 55.625 Z M 16.222656 55.625 "/>
<path style=" stroke:none;fill-rule:nonzero;fill:rgb(0%,0%,0%);fill-opacity:1;" d="M 16.242188 57.910156 C 16.242188 58.152344 16.261719 58.25 16.28125 58.125 C 16.300781 58.007812 16.300781 57.8125 16.28125 57.683594 C 16.261719 57.566406 16.242188 57.664062 16.242188 57.910156 Z M 16.242188 57.910156 "/>
<path style=" stroke:none;fill-rule:nonzero;fill:rgb(0%,0%,0%);fill-opacity:1;" d="M 17.921875 58.984375 C 17.949219 59.042969 17.882812 59.089844 17.753906 59.089844 C 17.597656 59.101562 17.578125 59.121094 17.695312 59.148438 C 17.792969 59.167969 17.941406 59.148438 18.027344 59.101562 C 18.175781 59.023438 18.175781 59.003906 18.027344 58.953125 C 17.929688 58.914062 17.882812 58.925781 17.921875 58.984375 Z M 17.921875 58.984375 "/>
<path style=" stroke:none;fill-rule:nonzero;fill:rgb(0%,0%,0%);fill-opacity:1;" d="M 16.5625 59.207031 C 16.59375 59.304688 16.652344 59.355469 16.679688 59.324219 C 16.710938 59.296875 16.679688 59.21875 16.613281 59.148438 C 16.515625 59.0625 16.503906 59.070312 16.5625 59.207031 Z M 16.5625 59.207031 "/>
<path style=" stroke:none;fill-rule:nonzero;fill:rgb(0%,0%,0%);fill-opacity:1;" d="M 18.4375 59.246094 C 18.496094 59.265625 18.613281 59.265625 18.683594 59.246094 C 18.742188 59.21875 18.691406 59.199219 18.554688 59.199219 C 18.417969 59.199219 18.371094 59.21875 18.4375 59.246094 Z M 18.4375 59.246094 "/>
<path style=" stroke:none;fill-rule:nonzero;fill:rgb(0%,0%,0%);fill-opacity:1;" d="M 34.875 46.902344 L 33.984375 48.71875 L 33.9375 49.675781 C 33.847656 51.132812 33.703125 52.136719 33.476562 52.761719 C 33.332031 53.164062 33.300781 53.359375 33.378906 53.4375 C 33.449219 53.503906 33.515625 53.464844 33.605469 53.308594 C 33.664062 53.183594 34.269531 52.527344 34.933594 51.84375 C 35.585938 51.160156 36.132812 50.535156 36.132812 50.457031 C 36.132812 50.371094 36.230469 50.292969 36.359375 50.273438 C 36.535156 50.253906 36.738281 49.902344 37.472656 48.4375 C 37.960938 47.441406 38.371094 46.582031 38.371094 46.523438 C 38.378906 46.464844 38.203125 46.386719 37.980469 46.347656 C 37.394531 46.25 36.417969 45.78125 36.066406 45.410156 L 35.753906 45.085938 Z M 34.875 46.902344 "/>
<path style=" stroke:none;fill-rule:nonzero;fill:rgb(0%,0%,0%);fill-opacity:1;" d="M 74.804688 50 L 74.804688 53.125 L 75.890625 53.125 L 75.878906 52.3125 C 75.851562 50.273438 75.859375 50.105469 76.125 49.851562 C 76.28125 49.6875 76.464844 49.609375 76.699219 49.609375 C 77.304688 49.609375 77.34375 49.726562 77.34375 51.523438 L 77.34375 53.125 L 78.417969 53.125 L 78.417969 51.355469 C 78.417969 49.363281 78.339844 49.042969 77.804688 48.816406 C 77.34375 48.621094 76.679688 48.691406 76.25 48.972656 L 75.878906 49.21875 L 75.878906 46.875 L 74.804688 46.875 Z M 74.804688 50 "/>
<path style=" stroke:none;fill-rule:nonzero;fill:rgb(0%,0%,0%);fill-opacity:1;" d="M 56.25 50.097656 L 56.25 53.125 L 57.226562 53.125 L 57.246094 51.152344 L 57.277344 49.1875 L 57.746094 50.742188 C 58.476562 53.183594 58.457031 53.125 58.847656 53.125 C 59.25 53.125 59.210938 53.210938 59.835938 50.984375 C 60.078125 50.097656 60.324219 49.324219 60.371094 49.265625 C 60.410156 49.21875 60.449219 50.066406 60.449219 51.152344 L 60.449219 53.125 L 61.523438 53.125 L 61.523438 47.070312 L 60.839844 47.070312 C 60.46875 47.070312 60.15625 47.089844 60.15625 47.117188 C 60.15625 47.253906 58.957031 50.9375 58.886719 51.015625 C 58.847656 51.054688 58.789062 51.015625 58.761719 50.917969 C 58.730469 50.808594 58.527344 50.15625 58.3125 49.460938 C 58.097656 48.757812 57.84375 47.9375 57.753906 47.625 L 57.578125 47.070312 L 56.25 47.070312 Z M 56.25 50.097656 "/>
<path style=" stroke:none;fill-rule:nonzero;fill:rgb(0%,0%,0%);fill-opacity:1;" d="M 71.925781 47.675781 C 71.90625 47.742188 71.867188 48.015625 71.855469 48.289062 C 71.828125 48.757812 71.816406 48.777344 71.515625 48.808594 C 71.210938 48.835938 71.191406 48.867188 71.191406 49.21875 C 71.191406 49.617188 71.320312 49.726562 71.671875 49.636719 C 71.875 49.589844 71.875 49.617188 71.886719 50.9375 C 71.886719 52.957031 72.0625 53.261719 73.175781 53.191406 C 73.847656 53.152344 74.074219 52.976562 73.984375 52.566406 C 73.925781 52.304688 73.886719 52.285156 73.46875 52.285156 C 73.039062 52.292969 73.007812 52.273438 72.929688 51.972656 C 72.882812 51.796875 72.863281 51.210938 72.871094 50.652344 L 72.902344 49.65625 L 73.417969 49.628906 L 73.925781 49.597656 L 73.925781 49.226562 C 73.925781 48.808594 73.828125 48.730469 73.292969 48.730469 L 72.960938 48.730469 L 72.929688 48.164062 L 72.902344 47.605469 L 72.433594 47.578125 C 72.121094 47.558594 71.953125 47.585938 71.925781 47.675781 Z M 71.925781 47.675781 "/>
<path style=" stroke:none;fill-rule:nonzero;fill:rgb(0%,0%,0%);fill-opacity:1;" d="M 63.144531 48.875 C 62.6875 49.03125 62.597656 49.160156 62.695312 49.5 C 62.773438 49.785156 62.84375 49.792969 63.671875 49.597656 C 64.414062 49.433594 64.785156 49.597656 64.824219 50.117188 C 64.855469 50.515625 64.875 50.507812 63.671875 50.625 C 62.746094 50.722656 62.375 51.152344 62.433594 52.089844 C 62.460938 52.585938 62.511719 52.703125 62.773438 52.9375 C 63.039062 53.171875 63.175781 53.222656 63.605469 53.222656 C 63.925781 53.222656 64.257812 53.152344 64.503906 53.027344 C 64.960938 52.792969 64.941406 52.792969 64.941406 52.976562 C 64.941406 53.085938 65.058594 53.125 65.371094 53.125 L 65.800781 53.125 L 65.871094 52.371094 C 65.910156 51.960938 65.917969 51.152344 65.898438 50.566406 C 65.839844 49.375 65.722656 49.089844 65.1875 48.867188 C 64.765625 48.691406 63.644531 48.699219 63.144531 48.875 Z M 64.84375 51.640625 C 64.84375 52.234375 64.609375 52.488281 64.0625 52.488281 C 63.59375 52.488281 63.378906 52.304688 63.378906 51.902344 C 63.378906 51.445312 63.769531 51.199219 64.53125 51.179688 C 64.84375 51.171875 64.84375 51.171875 64.84375 51.640625 Z M 64.84375 51.640625 "/>
<path style=" stroke:none;fill-rule:nonzero;fill:rgb(0%,0%,0%);fill-opacity:1;" d="M 67.121094 48.796875 C 67.023438 48.828125 66.992188 49.363281 66.992188 50.984375 L 66.992188 53.125 L 67.96875 53.125 L 67.96875 50.175781 L 68.253906 49.890625 C 68.46875 49.6875 68.632812 49.609375 68.886719 49.609375 C 69.445312 49.609375 69.511719 49.804688 69.550781 51.582031 L 69.582031 53.125 L 70.605469 53.125 L 70.605469 51.414062 C 70.605469 49.570312 70.527344 49.1875 70.109375 48.886719 C 69.738281 48.632812 68.859375 48.679688 68.417969 48.972656 C 68.222656 49.109375 68.039062 49.21875 68.019531 49.21875 C 67.988281 49.21875 67.96875 49.109375 67.96875 48.972656 C 67.96875 48.757812 67.929688 48.730469 67.609375 48.738281 C 67.402344 48.738281 67.179688 48.769531 67.121094 48.796875 Z M 67.121094 48.796875 "/>
<path style=" stroke:none;fill-rule:nonzero;fill:rgb(0%,0%,0%);fill-opacity:1;" d="M 80.148438 48.828125 C 79.765625 48.945312 79.589844 49.109375 79.589844 49.355469 C 79.589844 49.785156 79.71875 49.84375 80.234375 49.667969 C 81.183594 49.34375 81.769531 49.550781 81.71875 50.175781 L 81.691406 50.535156 L 81.152344 50.566406 C 80.429688 50.605469 79.941406 50.742188 79.640625 51.003906 C 79.140625 51.425781 79.140625 52.429688 79.640625 52.917969 C 79.855469 53.144531 79.972656 53.171875 80.558594 53.171875 C 81.09375 53.171875 81.269531 53.132812 81.445312 52.976562 C 81.652344 52.792969 81.671875 52.792969 81.789062 52.957031 C 81.867188 53.074219 82.042969 53.125 82.375 53.125 L 82.832031 53.125 L 82.804688 51.335938 C 82.765625 49.335938 82.695312 49.128906 82.082031 48.867188 C 81.71875 48.71875 80.585938 48.691406 80.148438 48.828125 Z M 81.738281 51.640625 C 81.738281 52.1875 81.574219 52.402344 81.074219 52.5 C 80.617188 52.597656 80.273438 52.332031 80.273438 51.902344 C 80.273438 51.621094 80.332031 51.523438 80.597656 51.367188 C 80.773438 51.25 81.085938 51.171875 81.328125 51.171875 L 81.738281 51.171875 Z M 81.738281 51.640625 "/>
<path style=" stroke:none;fill-rule:nonzero;fill:rgb(0%,0%,0%);fill-opacity:1;" d="M 83.847656 49.480469 C 83.820312 49.890625 83.789062 50.878906 83.789062 51.679688 L 83.789062 53.125 L 84.863281 53.125 L 84.863281 50.085938 L 85.128906 49.84375 C 85.332031 49.648438 85.480469 49.609375 85.78125 49.628906 C 86.367188 49.667969 86.425781 49.863281 86.425781 51.628906 L 86.425781 53.125 L 87.53125 53.125 L 87.472656 51.328125 C 87.402344 49.335938 87.335938 49.042969 86.816406 48.828125 C 86.339844 48.632812 85.527344 48.738281 85.148438 49.070312 L 84.816406 49.34375 L 84.785156 49.042969 C 84.757812 48.75 84.738281 48.730469 84.335938 48.730469 L 83.917969 48.730469 Z M 83.847656 49.480469 "/>
</g>
</svg>
